<svg width="16" height="16" viewBox="0 0 16 16" fill="none" xmlns="http://www.w3.org/2000/svg">
<g clip-path="url(#clip0_1_2804)">
<path d="M12.3244 15.751C12.175 15.7506 12.026 15.7342 11.88 15.7021C9.1007 15.1272 6.54025 13.7792 4.49331 11.8132C2.49005 9.84297 1.10069 7.33439 0.493311 4.59101C0.421694 4.24911 0.439271 3.89452 0.544353 3.56137C0.649434 3.22823 0.838483 2.92773 1.09331 2.68879L2.87109 0.977679C2.96189 0.891806 3.06978 0.826047 3.18772 0.784693C3.30566 0.743339 3.43099 0.727319 3.55553 0.737679C3.68467 0.751151 3.80929 0.792751 3.92063 0.859554C4.03197 0.926356 4.12732 1.01674 4.19998 1.12435L6.4222 4.40879C6.50553 4.53623 6.54576 4.68706 6.53696 4.83907C6.52816 4.99109 6.4708 5.13626 6.37331 5.25323L5.25776 6.58657C5.70204 7.56988 6.33124 8.4586 7.11109 9.20435C7.88589 9.97714 8.80168 10.5942 9.80887 11.0221L11.1911 9.92435C11.3072 9.8326 11.4484 9.77835 11.5961 9.76883C11.7438 9.7593 11.8908 9.79494 12.0178 9.87101L15.3733 12.0399C15.4885 12.1087 15.5866 12.2026 15.6603 12.3146C15.734 12.4267 15.7814 12.554 15.7989 12.6869C15.8164 12.8199 15.8036 12.9551 15.7615 13.0824C15.7193 13.2097 15.6489 13.3259 15.5555 13.4221L13.8222 15.1377C13.6253 15.3336 13.3916 15.4887 13.1346 15.5939C12.8775 15.6992 12.6022 15.7526 12.3244 15.751ZM3.48442 1.61768L1.70664 3.32879C1.56329 3.46237 1.45717 3.63096 1.39873 3.81798C1.34028 4.00501 1.33152 4.20402 1.37331 4.39546C1.93808 6.96974 3.2363 9.32537 5.11109 11.1777C7.0374 13.0273 9.44692 14.2952 12.0622 14.8355C12.2602 14.8768 12.4653 14.8685 12.6592 14.8111C12.8531 14.7537 13.0298 14.649 13.1733 14.5066L14.9066 12.791L11.6666 10.6977L10.1822 11.8799C10.1254 11.9249 10.0584 11.9553 9.98714 11.9684C9.91587 11.9816 9.84246 11.9772 9.77331 11.9555C8.54073 11.5013 7.29485 10.8604 6.37331 9.92435C5.42014 9.03422 4.80914 7.86035 4.33776 6.64435C4.31781 6.57073 4.31715 6.49322 4.33583 6.41928C4.35451 6.34533 4.39191 6.27743 4.44442 6.22212L5.64442 4.78657L3.48442 1.61768Z" fill="#3A98B2"/>
</g>
<defs>
<clipPath id="clip0_1_2804">
<rect width="16" height="16" fill="white"/>
</clipPath>
</defs>
</svg>
