<?xml version="1.0" standalone="no"?>
<!DOCTYPE svg PUBLIC "-//W3C//DTD SVG 20010904//EN"
 "http://www.w3.org/TR/2001/REC-SVG-20010904/DTD/svg10.dtd">
<svg version="1.0" xmlns="http://www.w3.org/2000/svg"
 width="560.000000pt" height="560.000000pt" viewBox="0 0 560.000000 560.000000"
 preserveAspectRatio="xMidYMid meet">
<metadata>
Created by potrace 1.14, written by Peter Selinger 2001-2017
</metadata>
<g transform="translate(0.000000,560.000000) scale(0.100000,-0.100000)"
fill="#000000" stroke="none">
<path d="M2648 5515 c-1 -1 -34 -6 -73 -10 -136 -13 -209 -26 -365 -64 -286
-71 -574 -194 -797 -341 -42 -28 -78 -50 -80 -50 -9 0 -203 -153 -273 -215
-87 -77 -243 -241 -315 -331 -83 -103 -209 -287 -245 -360 -14 -27 -28 -51
-32 -54 -21 -16 -188 -407 -188 -440 0 -9 -3 -20 -8 -24 -4 -4 -8 -12 -8 -17
-1 -5 -2 -10 -4 -11 -2 -3 -2 -3 -35 -133 -15 -55 -28 -109 -29 -120 -2 -11
-9 -51 -16 -90 -41 -244 -47 -544 -15 -775 2 -19 7 -55 10 -80 3 -25 8 -52 10
-60 2 -8 7 -29 9 -45 16 -93 88 -346 117 -412 11 -24 19 -49 19 -56 0 -7 4
-17 8 -22 5 -6 15 -26 22 -45 20 -51 111 -237 145 -295 28 -48 157 -245 176
-269 123 -154 173 -210 270 -306 63 -63 135 -131 159 -150 80 -66 225 -172
247 -183 13 -5 23 -14 23 -19 0 -4 5 -8 12 -8 6 0 19 -6 27 -14 39 -34 272
-154 411 -211 128 -52 347 -123 364 -117 4 1 14 -3 22 -9 8 -6 14 -9 14 -6 0
3 27 -1 59 -9 100 -23 224 -41 351 -51 160 -12 437 -6 555 12 17 3 48 7 70 10
22 3 47 7 55 10 8 2 33 6 55 10 60 8 258 62 360 97 178 61 403 170 535 257 34
23 63 41 66 41 10 0 165 119 254 194 414 352 698 790 863 1331 27 88 47 175
68 300 27 155 30 200 33 420 6 421 -76 790 -262 1175 -182 375 -424 679 -767
959 -171 139 -479 319 -680 396 -38 15 -88 33 -110 42 -93 35 -330 97 -450
117 -135 22 -219 29 -412 31 -121 2 -223 2 -225 0z m288 -512 c22 -21 76 -70
120 -109 208 -188 210 -190 217 -171 2 6 3 51 2 98 -2 48 1 93 6 100 11 19
416 19 428 1 4 -7 7 -137 6 -290 0 -155 4 -292 9 -311 11 -36 45 -74 146 -161
60 -51 85 -74 175 -155 127 -115 191 -172 209 -188 52 -44 166 -151 166 -156
0 -4 -69 -6 -152 -6 -188 1 -212 -5 -226 -54 -6 -22 -9 -176 -7 -401 2 -405 0
-424 -63 -468 -29 -21 -356 -182 -369 -182 -4 0 -14 -6 -22 -14 -9 -8 -22 -16
-28 -18 -15 -4 -136 -63 -429 -212 -248 -126 -272 -131 -370 -88 -32 14 -62
31 -66 37 -4 5 -8 6 -8 1 0 -5 -6 -4 -12 2 -16 12 -529 270 -752 377 -190 90
-213 106 -236 157 -15 34 -17 77 -16 405 1 201 0 381 -2 399 -6 51 -32 58
-210 59 -101 0 -157 4 -157 10 0 6 20 28 45 50 24 22 54 49 66 60 11 11 53 49
93 85 40 36 87 79 105 95 37 34 173 156 206 185 12 10 62 56 113 102 97 88
155 141 198 180 15 12 44 39 65 58 22 19 86 78 144 130 58 51 110 99 116 105
6 5 43 39 83 74 39 35 89 80 110 100 65 60 168 152 187 166 23 17 51 4 110
-52z m-1485 -1489 c17 -3 32 -17 44 -42 16 -33 19 -67 20 -303 2 -314 -3 -341
-62 -384 -23 -16 -42 -32 -42 -35 -1 -3 316 -164 704 -359 388 -195 705 -360
705 -368 0 -11 -225 -126 -420 -214 -41 -18 -78 -37 -81 -42 -3 -5 -9 -8 -13
-7 -4 1 -32 -11 -64 -27 -48 -24 -69 -28 -137 -28 -113 0 -89 -10 -795 346
-146 74 -317 159 -380 188 -184 88 -285 137 -299 145 -9 6 50 41 180 106 378
189 540 272 537 276 -2 1 -69 36 -149 77 -80 41 -152 78 -160 83 -8 5 -16 9
-19 9 -4 0 -285 142 -373 188 l-28 15 113 58 c150 77 554 278 598 297 61 26
78 29 121 21z m2914 -27 c43 -12 687 -327 707 -346 4 -3 -52 -35 -125 -71 -72
-36 -136 -68 -142 -73 -5 -4 -109 -57 -230 -118 -121 -61 -221 -112 -223 -114
-2 -2 88 -49 200 -105 112 -56 210 -106 218 -111 8 -4 27 -14 43 -21 15 -7 80
-40 143 -72 108 -55 115 -60 98 -73 -23 -17 -492 -256 -514 -262 -8 -2 -17 -6
-20 -10 -3 -3 -198 -103 -434 -221 l-429 -215 -66 1 c-63 1 -74 5 -256 98
-104 54 -199 103 -210 109 -11 6 -25 12 -32 13 -7 1 -27 13 -45 26 -18 12 -34
22 -35 21 -5 -5 -153 71 -153 77 0 3 323 168 718 366 394 197 720 363 724 368
3 5 -11 21 -32 34 -21 14 -49 44 -61 66 -23 40 -24 45 -23 329 1 262 3 289 19
307 21 23 73 22 160 -3z m-2651 -1726 c413 -205 381 -200 596 -92 80 40 152
77 160 82 53 31 325 157 331 153 4 -2 4 -17 -1 -33 -4 -16 -6 -32 -3 -34 3 -3
4 -218 3 -479 0 -260 -1 -484 0 -498 1 -14 2 -87 3 -162 2 -131 1 -137 -17
-132 -10 4 -294 144 -630 312 -336 168 -613 306 -616 307 -14 3 -135 69 -145
79 -7 6 -17 20 -23 31 -14 28 -14 635 1 632 6 -1 159 -76 341 -166z m2626 162
c1 -5 1 -141 2 -304 1 -356 5 -339 -114 -399 -45 -22 -88 -45 -94 -51 -7 -6
-19 -12 -26 -13 -20 -4 -773 -380 -776 -388 -2 -5 -9 -8 -15 -8 -10 0 -217
-100 -227 -110 -10 -10 -161 -80 -173 -80 -10 0 -12 140 -12 665 l0 664 23 -2
c13 -1 28 -7 34 -14 6 -7 14 -13 19 -13 11 0 389 -187 405 -201 7 -6 20 -12
27 -13 8 -1 21 -7 28 -12 40 -30 123 -55 169 -51 44 5 220 81 228 100 2 4 8 7
14 7 14 0 261 123 269 133 3 5 9 8 13 8 3 0 47 20 98 44 96 46 108 50 108 38z"/>
</g>
</svg>
